# xmcd CD database file
#
# Track frame offsets:
#	150
#	24602
#	39507
#	53085
#	70092
#	89885
#	105067
#	122910
#	140665
#	159257
#	179465
#	197385
#	218395
#	235992
#
# Disc length: 3436 seconds
#
# Revision: 1
# Processed by: cddbd v1.5.1PL0 Copyright (c) Steve Scherf et al.
# Submitted via: CDex 1.51
#
DISCID=b80d6a0e
DTITLE=矢井田瞳 - Yaiko’s selection
DYEAR=1900
DGENRE=Misc
TTITLE0=i can fly
TTITLE1=I like（U．K．mix）
TTITLE2=キャンドル
TTITLE3=マザー
TTITLE4=we’ll be…
TTITLE5=会いたい人
TTITLE6=Are you ready？ boy
TTITLE7=虹のドライブ
TTITLE8=ねえ
TTITLE9=見えない光
TTITLE10=手と涙
TTITLE11=チェイン
TTITLE12=Your Kiss
TTITLE13=Life’s Like A Love Song
EXTD=
EXTT0=
EXTT1=
EXTT2=
EXTT3=
EXTT4=
EXTT5=
EXTT6=
EXTT7=
EXTT8=
EXTT9=
EXTT10=
EXTT11=
EXTT12=
EXTT13=
PLAYORDER=
